<?xml version="1.0" encoding="utf-8"?>
<!-- Generator: Adobe Illustrator 22.0.1, SVG Export Plug-In . SVG Version: 6.00 Build 0)  -->
<svg version="1.1" id="Layer_1" xmlns="http://www.w3.org/2000/svg" xmlns:xlink="http://www.w3.org/1999/xlink" x="0px" y="0px"
	 viewBox="0 0 32 32" style="enable-background:new 0 0 32 32;" xml:space="preserve">
<style type="text/css">
	.st0{display:none;}
	.st1{display:inline;fill:#32DBC6;}
	.st2{display:inline;}
	.st3{fill:#32DBC6;}
</style>
<g id="Layer_2_1_" class="st0">
	<path class="st1" d="M0.5-14.7L-12-24.9c-0.2-0.2-0.6-0.2-0.8,0.1c-0.1,0.1-0.1,0.2-0.1,0.4v17c0,0.2,0.2,0.5,0.4,0.5
		c0.1,0,0.1,0,0.2,0c0.2,0,0.4-0.1,0.5-0.2l4.4-6.5h7.7c0.3,0,0.6-0.2,0.6-0.6C0.7-14.4,0.6-14.6,0.5-14.7z"/>
	<g class="st2">
		<path class="st3" d="M-12.3-28.4c-0.3,0-0.6-0.2-0.6-0.6v-4.5c0-0.3,0.2-0.6,0.6-0.6s0.6,0.2,0.6,0.6v4.5
			C-11.8-28.6-12-28.4-12.3-28.4z"/>
		<path class="st3" d="M-16.9-23.9h-4.5c-0.3,0-0.6-0.2-0.6-0.6c0-0.3,0.2-0.6,0.6-0.6h4.5c0.3,0,0.6,0.2,0.6,0.6
			S-16.6-23.9-16.9-23.9z"/>
		<path class="st3" d="M-3.3-23.9h-4.5c-0.3,0-0.6-0.2-0.6-0.6c0-0.3,0.2-0.6,0.6-0.6h4.5c0.3,0,0.6,0.2,0.6,0.6S-2.9-23.9-3.3-23.9
			z"/>
		<path class="st3" d="M-15.5-27.1c-0.2,0-0.3-0.1-0.4-0.2l-3.2-3.2c-0.2-0.2-0.2-0.6,0-0.8c0.2-0.2,0.6-0.2,0.8,0l3.2,3.2
			c0.2,0.2,0.2,0.6,0,0.8C-15.2-27.1-15.4-27.1-15.5-27.1L-15.5-27.1L-15.5-27.1z"/>
		<path class="st3" d="M-18.8-17.5c-0.3,0-0.6-0.2-0.6-0.6c0-0.2,0.1-0.3,0.2-0.4l3.2-3.2c0.2-0.2,0.6-0.2,0.8,0s0.2,0.6,0,0.8
			l-3.2,3.2C-18.5-17.5-18.6-17.5-18.8-17.5z"/>
		<path class="st3" d="M-9.1-27.1c-0.3,0-0.6-0.2-0.6-0.6c0-0.2,0.1-0.3,0.2-0.4l3.2-3.2c0.2-0.2,0.6-0.2,0.8,0
			c0.2,0.2,0.2,0.6,0,0.8l-3.2,3.2C-8.8-27.1-9-27.1-9.1-27.1z"/>
	</g>
</g>
<path class="st3" d="M9.3,4.7C7.9,4.7,7.1,4,6.3,3C5.7,2.2,4.9,1.6,3.9,2.1C3.1,2.5,2.5,3.5,3,4.4c0.4,0.9,1.3,1.5,1.5,3
	C4.6,8.3,4.7,9,4,9.7c-0.7,0.7-1.1,1.5-0.7,2.5c0.4,1.1,1.7,1.6,2.7,1.1c1.1-0.5,1.6-1.6,1.2-2.8c-0.4-0.9-0.9-2-1.2-2.7
	C5.7,6.9,5.6,6.2,6.1,6C6.9,5.7,7,6.4,7.9,7.3c0.6,0.5,1.4,0.6,1.9,0.4c0.8-0.3,1.1-1.2,0.8-2C10.4,5,9.8,4.7,9.3,4.7"/>
<g>
	<g>
		<path class="st3" d="M18.5,9c0,0-0.2,0.4-0.3,0.5L18,9.9c0,0-1.1,1.9-1.1,1.9c0,0-0.1-0.1-0.2-0.1l0,0.1c-0.2-0.1-0.4-0.2-0.5-0.3
			c0,0-0.1-1.7-0.1-1.7c0,0-0.1-1.1-0.1-1.1c0,0,0-0.5,0-0.5l0-0.5c-0.2,0.4-0.5,0.8-0.6,1c-0.1,0.1-0.1,0.2-0.1,0.2
			c-0.2,0.4-0.1,0.2-0.2,0.3c0,0,0,0.1-0.1,0.3c0,0-0.1,0.1-0.1,0.2c-0.1,0.1-0.1,0.2-0.2,0.4c-0.1,0.1-0.1,0.2-0.2,0.3
			c-0.1-0.1-0.3-0.1-0.4-0.2c0.1-0.1,0.2-0.3,0.3-0.5l0.3-0.5c0-0.1,0.1-0.2,0.2-0.3c0.1-0.1,0.2-0.3,0.2-0.4
			c0.1-0.2,0.2-0.4,0.2-0.4c0.2-0.4,0.6-0.9,0.8-1.3c0,0,0.1,0,0.2,0.1l0-0.1c0,0,0,0,0,0c0,0,0,0,0,0c0,0,0,0,0,0
			c0,0,0.2,0.1,0.2,0.2c0,0,0.1,0.1,0.1,0.1c0,0,0,0,0,0.1c0,0,0,0,0,0c0,0,0,0,0,0l0,0c0,0.2,0.1,1,0.1,1c0,0,0,0.8,0,0.8
			s0,0.6,0,0.7c0,0,0,0.6,0,0.6c0,0,0,0.6,0.1,1.1c0.2-0.3,0.4-0.8,0.5-0.8l0.4-0.7c0,0,0-0.1,0.1-0.1c0,0,0.1-0.1,0.1-0.1l0.4-0.7
			c0,0,0,0,0.1-0.1l0,0c0.1-0.2,0.2-0.4,0.4-0.6l0.2,0.1c0.1,0,0.1,0.1,0.2,0.1c-0.1,0.2-0.3,0.4-0.4,0.6C18.5,8.9,18.5,8.9,18.5,9
			L18.5,9z"/>
		<path class="st3" d="M19.3,13.4L19.3,13.4c-1-0.6-1.2-1.5-0.5-2.7c0,0,0,0,0.1,0c-0.1,0-0.1-0.1-0.1-0.1c0.7-1.1,1.6-1.5,2.7-0.9
			c0,0.1-0.2,0.3-0.2,0.4l0,0c0,0,0,0,0,0c0,0,0,0-0.1-0.1c-0.6-0.3-1.2-0.2-1.6,0.4c0,0.1,0,0.1,0,0.2c0,0.1-0.1,0.1-0.2,0.1l0,0.1
			c0,0,0,0,0,0c-0.2,0.4-0.3,0.7-0.4,1l0,0c0,0.5,0.2,0.9,0.6,1.1c0,0,0,0,0,0c0.8,0.4,1.5,0.2,2-0.8c0,0,0,0,0,0
			c0.5-0.9,0.4-1.6-0.3-2.1c0-0.1,0.1-0.3,0.2-0.3c0.7,0.4,1,1.1,0.8,1.9c0,0,0,0,0,0.1l0,0c-0.1,0.2-0.2,0.4-0.3,0.6l0,0
			C21.4,13.6,20.3,13.9,19.3,13.4z M20.6,9.8l0.1,0C20.6,9.7,20.6,9.8,20.6,9.8C20.5,9.8,20.6,9.8,20.6,9.8z M21,9.6L21,9.6
			C21,9.6,21,9.6,21,9.6z M21.2,10.1C21.2,10.1,21.2,10.1,21.2,10.1C21.2,10.1,21.2,10.1,21.2,10.1C21.2,10.2,21.2,10.2,21.2,10.1
			C21.2,10.2,21.2,10.1,21.2,10.1z M21.3,10.2C21.3,10.2,21.3,10.2,21.3,10.2C21.3,10.2,21.4,10.3,21.3,10.2
			C21.4,10.3,21.4,10.3,21.3,10.2z"/>
	</g>
	<g>
		<path class="st3" d="M15.3,14.6c0,0-0.2,0.4-0.3,0.5l-0.2,0.4c0,0-1.1,1.9-1.1,1.9c0,0-0.1-0.1-0.2-0.1l0,0.1
			c-0.2-0.1-0.4-0.2-0.5-0.3c0,0-0.1-1.7-0.1-1.7c0,0-0.1-1.1-0.1-1.1c0,0,0-0.5,0-0.5l0-0.5c-0.2,0.4-0.5,0.8-0.6,1
			c-0.1,0.1-0.1,0.2-0.1,0.2c-0.2,0.4-0.1,0.2-0.2,0.3c0,0,0,0.1-0.1,0.3c0,0-0.1,0.1-0.1,0.2c-0.1,0.1-0.1,0.2-0.2,0.4
			c-0.1,0.1-0.1,0.2-0.2,0.3c-0.1-0.1-0.3-0.1-0.4-0.2c0.1-0.1,0.2-0.3,0.3-0.5l0.3-0.5c0-0.1,0.1-0.2,0.2-0.3
			c0.1-0.1,0.2-0.3,0.2-0.4c0.1-0.2,0.2-0.4,0.2-0.4c0.2-0.4,0.6-0.9,0.8-1.3c0,0,0.1,0,0.2,0.1l0-0.1c0,0,0,0,0,0c0,0,0,0,0,0
			c0,0,0,0,0,0c0,0,0.2,0.1,0.2,0.2c0,0,0.1,0.1,0.1,0.1c0,0,0,0,0,0.1c0,0,0,0,0,0c0,0,0,0,0,0l0,0c0,0.2,0.1,1,0.1,1
			c0,0,0,0.8,0,0.8s0,0.6,0,0.7c0,0,0,0.6,0,0.6c0,0,0,0.6,0.1,1.1c0.2-0.3,0.4-0.8,0.5-0.8l0.4-0.7c0,0,0-0.1,0.1-0.1
			c0,0,0.1-0.1,0.1-0.1l0.4-0.7c0,0,0,0,0.1-0.1l0,0c0.1-0.2,0.2-0.4,0.4-0.6l0.2,0.1c0.1,0,0.1,0.1,0.2,0.1
			c-0.1,0.2-0.3,0.4-0.4,0.6C15.3,14.5,15.3,14.5,15.3,14.6L15.3,14.6z"/>
		<path class="st3" d="M17.4,19.7c-0.1-0.1-0.3-0.2-0.4-0.2c0,0,0.1-0.9,0.1-0.9c0,0,0-0.2,0.1-0.5L17.1,18c-0.1,0-0.6-0.3-0.6-0.3
			c-0.2-0.1-0.2-0.1-0.3-0.1c0,0,0,0,0-0.1c-0.1-0.1-0.3-0.1-0.4-0.2c-0.2,0.2-0.5,0.4-0.6,0.5c0,0,0,0,0,0c0,0-0.1,0-0.1-0.1
			c-0.1,0.1-0.4,0.3-0.4,0.3c0,0-0.4-0.2-0.4-0.2c0,0,0.4-0.4,0.4-0.4c0,0,0.1,0,0.1,0.1c0.1-0.1,0.4-0.3,0.5-0.5
			c0,0,0.1-0.1,0.1-0.1c0.1-0.1,1.8-1.5,1.9-1.5c0,0,0,0,0,0l0,0c0.1-0.1,0.2-0.2,0.3-0.2c0,0,0,0,0,0l0,0c0,0,0,0,0,0
			c0,0,0.1,0,0.1,0.1c0,0,0,0,0,0l0.1,0.1c0,0,0,0,0.1,0l0.1,0.1c0,0,0,0,0,0c0,0.3-0.5,3.4-0.5,3.4C17.6,18.8,17.5,19.6,17.4,19.7z
			 M17.3,17.6l0.3-1.9c-0.1,0.1-0.2,0.2-0.4,0.3c-0.3,0.3-0.7,0.6-1,0.9l0.4,0.2c0,0,0,0,0,0l0.1,0.1c0,0,0.5,0.3,0.5,0.3
			C17.2,17.6,17.3,17.6,17.3,17.6z M17.3,19c0,0,0-0.1,0-0.1c0,0,0,0,0,0C17.3,18.9,17.3,18.9,17.3,19C17.3,19,17.3,19,17.3,19z
			 M17.6,15.3C17.6,15.3,17.6,15.3,17.6,15.3C17.7,15.4,17.7,15.4,17.6,15.3C17.7,15.3,17.7,15.3,17.6,15.3
			C17.7,15.3,17.7,15.3,17.6,15.3z M17.9,15.2L17.9,15.2c0,0,0.1,0,0.1,0c0,0,0,0,0,0C18,15.3,17.9,15.2,17.9,15.2z"/>
		<path class="st3" d="M21.6,22.1c0,0-0.4-0.2-0.4-0.2c0.1-0.2,0.2-0.3,0.4-0.7c0.2-0.3,0.3-0.6,0.4-0.8c0,0-0.1,0-0.1-0.1
			c0.1-0.2,0.3-0.6,0.4-0.7c0,0,0.1,0,0.1,0.1l0.2-0.3c0.2-0.3,0.4-0.7,0.4-0.8c0,0,0,0,0,0c-0.1,0-0.1,0-0.2,0.2
			c-0.3,0.2-0.3,0.2-0.4,0.3c-0.2,0.2-0.3,0.2-0.6,0.5c0,0.1-0.1,0.2-0.3,0.3c-0.2,0.1-0.2,0.1-0.4,0.3c-0.3,0.3-0.3,0.3-0.7,0.6
			c-0.1,0.1-0.2,0.1-0.4,0.3c0,0-0.1-0.1-0.1-0.1c0,0-0.1,0-0.1,0c0,0-0.1,0-0.1,0c-0.1,0-0.1-0.1-0.1-0.1c0.1-0.5,0.1-0.5,0.1-0.9
			c0.1-0.8,0.1-0.8,0.2-1.3c0.1-0.7,0.1-0.8,0.2-1.4l-0.1,0.1c0,0.1-0.1,0.2-0.2,0.4c0,0,0,0,0,0.1c-0.1,0.1-0.1,0.3-0.2,0.4
			c0,0.1-0.2,0.3-0.2,0.3l-0.3,0.5c0,0-0.2,0.3-0.2,0.4c0,0,0,0,0,0c-0.2,0.4-0.3,0.6-0.5,0.9c-0.2-0.1-0.2-0.2-0.4-0.2
			c0.1-0.1,0.2-0.4,0.5-0.8c0,0,0-0.1,0-0.1c0,0,0.4-0.7,0.5-0.8c0,0,0.2-0.3,0.2-0.3c0-0.1,0.3-0.6,0.4-0.7c0,0,0,0,0,0
			c0.1-0.1,0.1-0.2,0.2-0.3c0-0.1,0.2-0.5,0.3-0.5c0,0,0.1,0,0.2,0.1c0,0,0,0,0-0.1c0.2,0.1,0.3,0.2,0.4,0.2
			c-0.1,0.3-0.1,0.3-0.1,0.8c-0.1,0.6-0.1,0.6-0.2,1.1c-0.1,0.5-0.1,0.6-0.2,1.2c0,0-0.1,0-0.1,0c0,0,0.1,0,0.1,0.1
			c0,0.1,0,0.2,0,0.3c0,0,0,0.1,0,0.1c0.1,0,0.1,0,0.2,0c0.3-0.3,0.3-0.2,0.6-0.4c0.4-0.3,0.5-0.4,0.7-0.5c0-0.1,0.1-0.2,0.2-0.2
			C22,19,22,19,22.1,18.9c0.3-0.2,0.3-0.2,0.5-0.4c0.1-0.1,0.1-0.1,0.3-0.2c0.1-0.1,0.1-0.1,0.2-0.1l0.3,0.1
			c0.1,0.1,0.2,0.1,0.3,0.2c0,0-0.1,0.2-0.2,0.3c0,0,0,0.1,0,0.1c0,0.1-0.5,0.9-0.7,1.2c-0.3,0.5-0.3,0.6-0.6,1
			C22.1,21.2,21.7,21.9,21.6,22.1z M19.9,19.8L19.9,19.8C19.9,19.8,19.9,19.8,19.9,19.8z M20.2,20C20.2,20,20.2,20,20.2,20
			c0-0.1,0.1,0,0.1,0C20.3,20,20.2,20,20.2,20L20.2,20z"/>
		<path class="st3" d="M24.6,23.7C24.6,23.7,24.5,23.8,24.6,23.7l-2-1c0,0,0.1,0,0.1,0l0.2-0.4c0,0,0.2-0.4,0.5-0.8c0,0,0,0,0,0
			c0.3-0.5,0.2-0.4,0.4-0.6l0,0c0.1-0.1,0.4-0.7,0.6-1.1l0,0c0.2-0.4,0.1-0.2,0.3-0.5l0.1,0l0-0.1c0.1,0,0.7,0.4,0.7,0.4l0.7,0.4
			c-0.1,0-0.1,0-0.1,0c0.2,0.1,0.5,0.3,0.6,0.3c-0.1,0.1-0.1,0.2-0.2,0.3c-0.1-0.1-0.4-0.2-0.6-0.3c0,0-0.1,0-0.1,0
			c-0.4-0.2-0.7-0.4-0.8-0.5c0,0,0,0,0,0c-0.1,0.1-0.2,0.3-0.3,0.5l-0.1,0.1c0,0,0,0,0,0.1l-0.3,0.5c0.1,0.1,0.2,0.1,0.4,0.2
			c0,0,0-0.1,0-0.1l0.5,0.3c0.2,0.1,0.6,0.3,0.6,0.3c0,0-0.1,0.1-0.1,0.1c0,0-0.1,0.1-0.1,0.2l-0.1,0c-0.1,0-0.1,0-0.2,0
			c-0.2-0.1-0.3-0.2-0.5-0.3c0,0,0-0.1,0-0.1l-0.1,0c0,0-0.1,0-0.1,0.1c-0.1-0.1-0.4-0.2-0.5-0.3c-0.3,0.6-0.7,1.2-0.7,1.2
			c0.1,0,1.3,0.8,1.5,0.9c0,0.1,0,0.1-0.1,0.1C24.8,23.5,24.7,23.6,24.6,23.7L24.6,23.7z M26.1,19.9L26.1,19.9L26.1,19.9z"/>
	</g>
	<g>
		<path class="st3" d="M11.9,19.5c0,0,0,0.1,0,0.1c-0.1,0.1-0.1,0.1-0.4,0.2L11,20.1c-0.1,0.1-0.3,0.2-0.5,0.2
			c-0.3,0.2-0.6,0.3-0.7,0.4c0,0,0,0.1,0,0.1c0,0.1-0.4,0.6-0.4,0.7c0,0,0,0,0,0.1c0,0-0.1,0.1-0.1,0.2c0,0,0,0,0.1,0
			c-0.1,0.1-0.1,0.2-0.2,0.2c-0.1,0.1-0.1,0.2-0.2,0.3l0,0c0,0,0,0,0,0c-0.1,0-0.2-0.1-0.3-0.2L8.6,22c0,0,0.4-0.6,0.4-0.7
			c0-0.1,0.2-0.3,0.2-0.4c0.1-0.1,0.2-0.3,0.2-0.3l0,0c0,0,0,0,0,0c0-0.3,0-0.3,0-0.5c0,0-0.1-0.1-0.1-0.2c0-0.8,0-0.8,0.1-2.1
			c0,0,0-0.1,0-0.1l0.4,0.2c0,0.2,0,0.2,0,0.3c0,0.2,0,0.3,0,0.4c0,0,0.1-0.1,0.1-0.1c0,0.2,0,0.2,0,0.3c0,0.1,0,0.1,0,0.2
			c0,0.2,0,0.2,0,0.5c0,0.1,0,0.1-0.1,0.1c0,0,0,0.1,0,0.2C9.8,19.9,9.8,20,9.8,20c0,0.1,0,0.1,0,0.2c0.2-0.1,0.2-0.1,0.5-0.3
			c0.1-0.1,0.1-0.1,0.2-0.1l0.2-0.1c0,0,0,0,0,0l0.4-0.2c0,0,0,0,0,0c0.1-0.1,0.2-0.1,0.4-0.2c0,0,0-0.1,0-0.1l0.2-0.1l0.1,0
			c0,0,0,0,0,0c0.1,0.1,0.2,0.1,0.3,0.2L11.9,19.5z M9.4,18.9C9.4,18.9,9.4,18.9,9.4,18.9C9.4,18.9,9.4,18.9,9.4,18.9z"/>
		<path class="st3" d="M12.8,24.3C12.8,24.4,12.8,24.4,12.8,24.3l-2-1c0,0,0.1,0,0.1,0l0.2-0.4c0,0,0.2-0.4,0.5-0.8c0,0,0,0,0,0
			c0.3-0.5,0.2-0.4,0.4-0.6l0,0c0.1-0.1,0.4-0.7,0.6-1.1l0,0c0.2-0.4,0.1-0.2,0.3-0.5l0.1,0l0-0.1c0.1,0,0.7,0.4,0.7,0.4l0.7,0.4
			c-0.1,0-0.1,0-0.1,0c0.2,0.1,0.5,0.3,0.6,0.3c-0.1,0.1-0.1,0.2-0.2,0.3c-0.1-0.1-0.4-0.2-0.6-0.3c0,0-0.1,0-0.1,0
			c-0.4-0.2-0.7-0.4-0.8-0.5c0,0,0,0,0,0c-0.1,0.1-0.2,0.3-0.3,0.5L12.7,21c0,0,0,0,0,0.1l-0.3,0.5c0.1,0.1,0.2,0.1,0.4,0.2
			c0,0,0-0.1,0-0.1l0.5,0.3c0.2,0.1,0.6,0.3,0.6,0.3c0,0-0.1,0.1-0.1,0.1c0,0-0.1,0.1-0.1,0.2l-0.1,0c-0.1,0-0.1,0-0.2,0
			c-0.2-0.1-0.3-0.2-0.5-0.3c0,0,0-0.1,0-0.1l-0.1,0c0,0-0.1,0-0.1,0.1c-0.1-0.1-0.4-0.2-0.5-0.3c-0.3,0.6-0.7,1.2-0.7,1.2
			c0.1,0,1.3,0.8,1.5,0.9c0,0.1,0,0.1-0.1,0.1C13,24.2,12.9,24.3,12.8,24.3L12.8,24.3z M14.4,20.5L14.4,20.5L14.4,20.5z"/>
		<path class="st3" d="M16.8,22.5c0,0.1-0.1,0.1-0.1,0.1c0,0,0.1,0,0.1,0l-0.4,0.7l0,0c0,0-0.2,0.4-0.2,0.4c0,0,0,0,0,0.1
			c0,0.1-0.2,0.3-0.2,0.4l0,0c0,0,0,0.1,0,0.1c0,0.1-0.2,0.3-0.2,0.3c0,0.1-0.2,0.4-0.4,0.7c0,0.1-0.1,0.1-0.1,0.1L15,25.7
			c-0.1-0.1-0.3-0.2-0.4-0.2c0,0,0.1-0.1,0.1-0.2c0,0,0-0.1,0.1-0.1c0,0,0-0.1,0.1-0.1l0.1-0.1c0,0,0,0,0,0c0.2-0.3,0.4-0.7,0.4-0.8
			c0.1-0.1,0.3-0.5,0.5-0.9c0-0.1,0-0.2,0.1-0.4c0.1-0.1,0,0.1,0.4-0.6c0,0,0,0,0-0.1c-0.2-0.1-0.8-0.4-1-0.6
			c0.1-0.1,0.2-0.3,0.2-0.3c0.1,0,0.2,0.1,0.4,0.2c0,0,0,0,0,0c0,0,0,0,0.1,0c0,0,0,0,0,0c0.1,0,0.6,0.3,0.6,0.3c0.1,0,0.1,0,0.1,0
			c0,0,0.2,0.1,0.3,0.2l0.3,0.2c0.1,0,0.1,0.1,0.1,0.1c0.3,0.2,0.5,0.3,0.7,0.4c-0.1,0.2-0.1,0.2-0.2,0.3
			C17.8,23.1,17,22.6,16.8,22.5z"/>
	</g>
	<g>
		<path class="st3" d="M17.3,27.1l0.2-1.5l0.3,0.2l-0.2,0.8c0,0.1-0.1,0.3-0.1,0.3l0,0c0,0,0.1-0.1,0.2-0.2l0.6-0.6l0.3,0.2
			l-1.2,0.9L17.3,27.1z"/>
		<path class="st3" d="M19.6,27.6c-0.1,0.2-0.3,0.3-0.4,0.4c-0.2,0.1-0.3,0-0.5-0.1c-0.1-0.1-0.2-0.1-0.3-0.2
			c-0.1-0.1-0.1-0.2-0.1-0.3c0-0.1,0-0.2,0.1-0.4c0.1-0.2,0.3-0.3,0.4-0.4c0.2-0.1,0.3,0,0.5,0.1c0.2,0.1,0.3,0.2,0.3,0.4
			C19.8,27.3,19.8,27.4,19.6,27.6z M18.8,27.1c-0.2,0.3-0.1,0.5,0.1,0.6c0.2,0.1,0.4,0,0.5-0.2c0.2-0.3,0.1-0.5-0.1-0.6
			c-0.1-0.1-0.2-0.1-0.3,0C18.9,26.9,18.8,27,18.8,27.1z"/>
	</g>
	<g>
		<path class="st3" d="M19.6,28.2c0-0.1,0.1-0.1,0.1-0.1s0.1,0,0.1,0c0.1,0,0.1,0.1,0.1,0.1c0,0,0,0.1,0,0.1c0,0.1-0.1,0.1-0.1,0.1
			c0,0-0.1,0-0.1,0c-0.1,0-0.1-0.1-0.1-0.1C19.6,28.3,19.6,28.3,19.6,28.2z"/>
	</g>
	<g>
		<path class="st3" d="M20.9,29.2L20.7,29l0.6-1c0.1-0.1,0.1-0.2,0.2-0.3c0,0-0.1,0-0.1,0c0,0-0.2,0-0.4,0.1l0-0.2l0.7-0.1l0.2,0.1
			L20.9,29.2z"/>
	</g>
</g>
</svg>
